<?xml version="1.0" standalone="no"?>
<!DOCTYPE svg PUBLIC "-//W3C//DTD SVG 20010904//EN"
 "http://www.w3.org/TR/2001/REC-SVG-20010904/DTD/svg10.dtd">
<svg version="1.0" xmlns="http://www.w3.org/2000/svg"
 width="1024.000000pt" height="1024.000000pt" viewBox="0 0 1024.000000 1024.000000"
 preserveAspectRatio="xMidYMid meet">

<g transform="translate(0.000000,1024.000000) scale(0.100000,-0.100000)"
fill="#000000" stroke="none">
<path d="M7222 8194 c-155 -41 -258 -168 -269 -332 -3 -42 -1 -93 4 -112 9
-33 7 -36 -36 -74 -25 -21 -144 -132 -265 -245 -120 -113 -239 -222 -265 -241
l-46 -35 -463 3 -462 2 0 348 0 347 47 35 c67 50 103 123 102 204 l-1 61 -9
-54 c-5 -30 -11 -56 -12 -58 -2 -1 -35 2 -73 8 -101 16 -309 22 -333 10 -24
-13 -48 -5 -54 17 -3 10 -5 5 -6 -10 -1 -27 27 -100 42 -106 4 -2 5 -7 2 -12
-7 -11 71 -80 90 -80 13 0 15 -47 15 -357 l0 -358 -428 -1 c-424 0 -427 0
-480 -23 -92 -41 -140 -119 -129 -212 7 -60 46 -119 96 -147 l39 -22 967 0
968 0 51 47 c28 25 128 121 221 212 94 92 256 249 361 349 l192 182 25 -20
c62 -49 117 -65 227 -65 129 0 175 19 266 110 83 82 108 146 109 275 0 85 -3
101 -29 154 -82 167 -276 251 -464 200z"/>
<path d="M5081 8134 c0 -11 3 -14 6 -6 3 7 2 16 -1 19 -3 4 -6 -2 -5 -13z"/>
<path d="M6090 7780 c-9 -6 -10 -10 -3 -10 6 0 15 5 18 10 8 12 4 12 -15 0z"/>
<path d="M6051 7726 c-12 -18 -24 -49 -28 -67 -3 -19 -12 -38 -19 -42 -12 -7
-11 -14 2 -45 21 -51 51 -81 109 -108 125 -59 275 -9 331 110 13 28 24 67 24
86 l-1 35 -15 -35 c-16 -37 -42 -70 -55 -70 -4 0 -6 18 -4 40 5 51 -10 52 -19
2 -15 -100 -172 -147 -248 -75 -55 52 -72 115 -48 177 14 37 -5 32 -29 -8z
m14 -116 c-5 -8 -11 -8 -17 -2 -6 6 -7 16 -3 22 5 8 11 8 17 2 6 -6 7 -16 3
-22z m60 -68 c-7 -8 -35 7 -35 18 0 6 7 6 20 -2 10 -7 17 -14 15 -16z"/>
<path d="M6451 7745 c1 -19 18 -51 18 -35 0 8 -4 22 -9 30 -5 8 -9 11 -9 5z"/>
<path d="M4060 7530 c6 -11 15 -20 20 -20 6 0 2 9 -7 20 -10 11 -19 20 -21 20
-1 0 2 -9 8 -20z"/>
<path d="M4184 7504 c-18 -14 -18 -15 4 -4 12 6 22 13 22 15 0 8 -5 6 -26 -11z"/>
<path d="M4103 7503 c9 -14 46 -23 52 -14 2 4 -1 8 -8 8 -7 0 -21 4 -31 9 -13
5 -17 4 -13 -3z"/>
<path d="M2070 7460 l-385 -5 -50 -26 c-171 -88 -142 -338 44 -378 36 -8 311
-11 876 -11 l823 0 6 -47 c13 -100 16 -121 34 -210 10 -51 16 -97 13 -102 -4
-6 -296 -11 -777 -13 -858 -3 -810 1 -834 -72 -9 -29 -8 -41 6 -72 32 -66 -1
-64 864 -64 429 0 780 -3 780 -7 0 -5 6 -48 14 -98 8 -49 17 -110 20 -135 3
-25 7 -56 10 -70 2 -14 7 -46 10 -71 4 -25 9 -57 11 -70 6 -36 14 -88 40 -264
27 -173 45 -288 69 -432 9 -51 20 -121 26 -155 10 -65 14 -94 30 -188 5 -30
12 -73 15 -95 3 -22 14 -94 25 -160 10 -66 21 -136 24 -156 l4 -36 -105 -7
c-59 -3 -171 -6 -249 -6 l-144 0 -19 39 c-44 86 -136 161 -197 161 -18 0 -34
5 -36 12 -7 20 -179 10 -186 -11 -2 -6 -10 -11 -18 -11 -8 0 -14 -4 -14 -10 0
-5 -6 -10 -14 -10 -25 0 -106 -92 -106 -120 0 -5 7 -10 16 -10 21 0 94 66 86
77 -4 4 -3 5 1 1 5 -3 27 2 50 13 117 53 259 -4 315 -126 41 -87 13 -225 -54
-272 -105 -74 -198 -86 -291 -39 -29 14 -56 34 -62 43 -6 10 -11 14 -11 8 0
-5 -5 -3 -10 5 -7 11 -10 11 -10 2 0 -7 -4 -11 -9 -8 -5 3 -14 0 -20 -7 -17
-22 80 -112 148 -138 147 -55 332 15 413 158 l30 53 263 0 264 0 11 -57 c20
-106 30 -143 55 -199 34 -77 118 -188 179 -236 56 -45 159 -99 224 -118 23 -7
42 -15 42 -16 0 -2 -10 -19 -23 -37 -61 -90 -73 -237 -27 -327 31 -61 87 -118
144 -148 43 -22 64 -26 136 -27 73 0 93 4 141 28 116 57 183 161 183 287 0 64
-4 85 -31 143 l-32 67 548 0 547 0 -33 -68 c-45 -90 -49 -187 -10 -274 119
-267 508 -242 603 38 27 80 13 162 -53 312 -3 7 3 12 16 12 55 0 138 66 165
132 32 76 12 150 -57 216 -66 63 -33 62 -1074 62 -600 0 -961 4 -989 10 -65
15 -115 43 -155 87 -67 74 -80 117 -124 398 -10 61 -19 119 -21 130 -2 11 -17
112 -33 225 -30 201 -98 650 -106 700 -2 14 -20 128 -40 255 -19 126 -37 241
-40 255 -2 14 -12 72 -20 130 -9 58 -30 191 -46 295 -16 105 -38 251 -49 325
-11 74 -25 158 -31 185 -35 154 -163 289 -318 335 -61 18 -101 20 -546 22
-264 2 -653 1 -865 -2z m936 -2767 c1 -26 -4 -28 -28 -9 -25 19 -22 38 5 34
15 -2 22 -10 23 -25z m89 -3 c3 -6 -1 -7 -9 -4 -18 7 -21 14 -7 14 6 0 13 -4
16 -10z"/>
<path d="M6888 7083 c17 -2 47 -2 65 0 17 2 3 4 -33 4 -36 0 -50 -2 -32 -4z"/>
<path d="M7128 7083 c34 -2 88 -2 120 0 31 2 3 3 -63 3 -66 0 -92 -1 -57 -3z"/>
<path d="M7378 7083 c7 -3 16 -2 19 1 4 3 -2 6 -13 5 -11 0 -14 -3 -6 -6z"/>
<path d="M7584 7042 c1 -13 -6 -16 -31 -14 -18 2 -33 -1 -33 -6 0 -5 -125 -12
-287 -16 -159 -5 -328 -11 -378 -15 -49 -4 -94 -6 -98 -3 -5 2 0 14 10 25 20
24 -33 -22 -163 -138 -49 -44 -97 -88 -108 -97 -19 -17 -5 -18 303 -18 l323 0
-5 -22 c-3 -13 -25 -68 -50 -123 -85 -187 -560 -1259 -663 -1495 l-103 -235
-945 -3 -946 -2 0 -140 c0 -150 9 -192 53 -238 55 -59 -4 -56 1022 -53 1053 2
999 -2 1076 74 42 42 62 79 185 343 l77 164 272 0 273 0 6 -27 c4 -14 21 -46
37 -70 63 -91 142 -147 245 -173 98 -25 141 -25 234 1 128 35 203 95 260 209
l30 60 80 0 c44 0 80 -4 80 -9 0 -16 60 -71 102 -92 81 -41 209 -6 264 72 41
59 55 123 38 179 -30 101 -112 170 -203 170 -63 0 -144 -39 -173 -83 -23 -37
-52 -47 -130 -47 -33 0 -38 3 -44 28 -24 114 -106 242 -151 237 -40 -4 -73
-18 -73 -31 0 -8 -10 -14 -21 -14 -19 0 -20 -2 -8 -17 13 -17 13 -17 -13 0
-41 26 -47 20 -8 -7 19 -13 39 -21 44 -18 5 3 6 0 2 -6 -3 -6 2 -17 12 -24 10
-7 30 -42 46 -77 24 -55 28 -73 23 -123 -11 -119 -90 -222 -191 -249 -135 -36
-266 15 -333 129 -23 39 -28 60 -31 140 -4 75 -2 93 8 87 8 -5 11 -4 6 3 -8
14 25 81 42 82 6 0 12 7 12 15 0 8 11 17 25 21 14 3 23 9 20 13 -2 4 25 18 61
31 64 22 139 24 199 6 l20 -7 -20 10 c-42 20 -62 23 -122 21 -34 -1 -89 4
-122 11 -64 12 -71 21 -50 62 10 22 10 22 -6 2 -9 -11 -19 -19 -23 -18 -4 1
-9 -1 -12 -4 -3 -4 1 -3 9 2 9 5 12 4 7 -3 -4 -7 -14 -12 -23 -12 -13 0 -14
-2 -2 -17 13 -17 12 -17 -5 -3 -17 13 -21 11 -50 -21 -69 -79 -92 -119 -116
-209 l-11 -40 -219 0 c-121 0 -220 2 -220 5 0 5 205 461 280 623 l39 82 373 0
374 0 30 -31 c39 -42 82 -59 151 -59 114 0 168 30 218 121 52 97 30 209 -58
284 -70 60 -157 71 -242 31 -60 -28 -87 -56 -115 -119 l-21 -47 -312 6 c-172
4 -313 7 -313 8 -1 0 50 114 114 251 114 248 115 251 116 328 l1 77 33 0 32 0
0 134 c0 74 -4 137 -9 140 -5 3 -8 -2 -7 -12z"/>
<path d="M7691 6943 c-1 -21 3 -23 42 -21 l42 1 -37 4 c-24 3 -38 10 -41 21
-3 12 -5 11 -6 -5z"/>
<path d="M7791 6917 c2 -2 18 -11 34 -21 l30 -17 -24 20 c-13 12 -28 21 -34
21 -6 0 -8 -1 -6 -3z"/>
<path d="M7866 6871 c-3 -5 1 -14 9 -21 12 -10 15 -10 15 3 0 19 -16 31 -24
18z"/>
<path d="M8046 6840 c5 -22 2 -31 -10 -36 -12 -5 -16 -20 -16 -59 0 -30 -4
-57 -10 -60 -5 -3 -10 3 -10 14 0 12 -4 21 -10 21 -5 0 -10 7 -10 15 0 8 -4
15 -8 15 -4 0 -13 14 -19 31 -9 23 -17 30 -28 25 -9 -3 -13 -2 -10 4 8 13 -4
32 -15 25 -5 -3 -2 -21 6 -40 11 -26 14 -86 14 -255 l0 -221 35 27 c49 37 156
74 215 74 28 0 50 3 50 6 0 9 -62 96 -96 134 -31 34 -32 38 -36 150 -3 75 -9
123 -19 138 -19 31 -30 28 -23 -8z"/>
<path d="M4364 6228 c7 -218 23 -638 32 -865 l6 -153 799 0 800 0 104 216 c58
119 105 221 105 225 0 5 -319 9 -710 9 l-710 0 0 160 0 160 773 0 774 0 78
163 c80 166 125 264 125 272 0 3 -491 5 -1091 5 l-1091 0 6 -192z"/>
<path d="M7979 5778 c-8 -29 0 -43 41 -81 44 -41 177 -140 243 -182 l27 -17 0
124 0 125 -57 -15 c-53 -13 -64 -13 -128 3 -38 10 -82 24 -97 32 -16 7 -28 12
-29 11z"/>
<path d="M3160 5385 c0 -8 -12 -17 -27 -21 -90 -19 -148 -56 -178 -114 l-16
-30 -515 0 -515 0 -52 54 c-44 44 -62 55 -105 65 -75 16 -92 14 -151 -15 -92
-46 -142 -164 -112 -266 15 -48 74 -116 118 -135 84 -34 213 0 268 72 l26 35
520 0 521 0 41 -35 c68 -59 162 -72 242 -34 58 27 91 67 110 131 20 69 19 84
-9 145 -28 58 -70 107 -103 117 -14 4 -23 15 -23 27 0 12 -7 19 -20 19 -11 0
-20 -7 -20 -15z"/>
<path d="M7700 5363 c-8 -3 -17 -9 -20 -12 -3 -3 -14 -11 -25 -17 -11 -5 -33
-35 -48 -65 -55 -104 -22 -211 79 -260 90 -43 188 -12 252 81 54 80 11 219
-81 260 -40 19 -124 25 -157 13z"/>
<path d="M2845 4565 c-16 -9 -38 -23 -47 -32 -14 -12 -62 -16 -269 -21 l-251
-5 6 -36 c11 -57 12 -60 19 -67 11 -11 8 -36 -3 -29 -16 10 -12 -11 5 -25 8
-7 13 -16 10 -20 -3 -5 100 -9 230 -10 234 -1 235 -1 261 -25 58 -54 144 -57
213 -9 44 32 58 55 67 113 8 51 -22 120 -67 151 -42 31 -131 38 -174 15z"/>
<path d="M6943 4435 c-66 -28 -81 -125 -28 -175 18 -17 37 -23 71 -24 40 -1
49 3 75 32 77 86 -13 213 -118 167z"/>
<path d="M7973 4353 c-7 -2 -13 -11 -13 -19 0 -8 -9 -14 -20 -14 -11 0 -20 -4
-20 -10 0 -16 -50 -7 -51 10 0 11 -3 9 -10 -5 -8 -17 -9 -16 -5 8 2 18 0 25
-6 19 -6 -6 -11 -28 -11 -50 -1 -22 -5 -38 -8 -36 -4 2 -12 -16 -18 -40 -6
-24 -26 -81 -45 -126 -28 -65 -31 -80 -18 -74 9 4 39 13 65 20 57 15 168 5
231 -21 21 -9 39 -15 40 -13 4 6 56 166 70 216 8 29 11 50 6 47 -6 -4 -10 -16
-11 -28 0 -21 -1 -21 -10 -2 -8 17 -8 16 -4 -7 3 -15 1 -29 -3 -32 -5 -3 -9
14 -10 37 -1 23 -7 44 -12 45 -6 2 -10 14 -10 27 0 15 -7 26 -20 30 -11 3 -20
11 -20 16 0 9 -65 11 -87 2z"/>
<path d="M1980 4306 c0 -8 4 -17 9 -20 5 -4 7 3 4 14 -6 23 -13 26 -13 6z"/>
<path d="M2160 4280 c0 -33 -3 -40 -19 -40 -11 0 -21 -6 -24 -12 -3 -9 -11 -6
-24 10 -21 23 -43 29 -43 12 0 -5 6 -10 14 -10 8 0 17 -8 19 -17 9 -32 1 -103
-11 -115 -11 -11 -12 -9 -7 7 5 16 5 17 -4 4 -12 -19 -3 -61 11 -52 6 3 8 0 6
-8 -12 -33 111 -301 226 -492 89 -149 172 -271 229 -340 l40 -49 -69 -69 c-66
-66 -72 -69 -98 -59 -78 29 -209 -7 -259 -73 -39 -52 -60 -124 -53 -185 8 -68
24 -98 79 -149 54 -50 104 -67 168 -60 133 16 229 122 229 253 0 39 5 46 71
108 l70 65 102 -106 c445 -462 1081 -800 1712 -909 362 -62 756 -68 1055 -15
30 5 71 12 90 16 178 32 473 124 676 210 145 62 344 164 350 180 3 7 -7 33
-23 59 l-28 46 -230 0 -230 0 -90 -36 c-195 -77 -502 -148 -705 -165 -254 -20
-291 -21 -445 -10 -182 13 -197 15 -355 42 -693 121 -1343 528 -1795 1124 -80
106 -155 220 -155 237 0 4 154 9 343 10 l342 3 -345 5 c-190 3 -339 6 -331 8
8 1 -2 17 -27 41 -22 22 -43 48 -46 58 -3 11 -16 24 -29 29 -12 6 -17 9 -10 8
6 -2 14 4 17 13 5 11 1 14 -12 11 -16 -5 -29 15 -76 108 -31 62 -56 115 -56
118 0 3 -5 17 -11 33 -8 22 -12 25 -20 13 -8 -12 -9 -11 -5 5 7 24 -37 164
-47 149 -7 -11 24 -107 36 -112 4 -2 5 -8 2 -13 -8 -12 -85 40 -85 57 0 10
-13 14 -40 14 -38 0 -40 2 -40 30 0 17 5 30 10 30 6 0 10 5 10 10 0 6 -13 10
-30 10 -28 0 -30 -2 -30 -40z"/>
<path d="M7480 4280 c-8 -5 -39 -10 -67 -10 -29 0 -53 -4 -53 -9 0 -5 -16 -12
-35 -15 -19 -4 -35 -11 -35 -16 0 -4 -3 -16 -7 -25 -5 -14 -2 -16 15 -10 22 6
31 -8 12 -20 -5 -3 -10 -11 -10 -16 0 -6 5 -7 10 -4 6 3 10 2 10 -3 0 -17 -13
-22 -28 -9 -13 10 -14 9 -8 -2 13 -21 87 -51 128 -51 21 0 62 9 93 21 50 18
55 23 51 46 -4 20 -2 24 12 18 14 -5 15 -4 5 6 -7 7 -13 23 -13 36 0 13 -4 23
-10 23 -5 0 -10 11 -10 25 0 19 -5 25 -22 25 -13 0 -30 -5 -38 -10z m55 -129
c3 -5 1 -12 -5 -16 -5 -3 -10 1 -10 9 0 18 6 21 15 7z m-150 -41 c3 -5 1 -10
-4 -10 -6 0 -11 5 -11 10 0 6 2 10 4 10 3 0 8 -4 11 -10z"/>
<path d="M1997 4250 c3 -11 9 -17 15 -14 5 3 4 12 -3 20 -16 19 -18 18 -12 -6z"/>
<path d="M7797 3924 c-29 -9 -64 -31 -87 -54 l-40 -40 -282 0 c-276 0 -284 -1
-333 -24 -99 -46 -134 -114 -135 -256 l0 -95 -73 -64 c-39 -35 -151 -139 -247
-231 -96 -91 -194 -183 -216 -203 l-41 -37 -174 0 -174 0 -175 176 c-96 96
-187 182 -202 190 -20 11 -70 14 -203 14 l-176 0 7 -22 c3 -13 12 -34 19 -48
7 -14 10 -31 8 -37 -3 -7 0 -13 6 -13 6 0 11 -7 11 -15 0 -14 -4 -14 -31 1
-17 8 -40 13 -51 11 -11 -3 -35 2 -54 11 l-34 16 22 25 c13 14 4 8 -20 -13
-31 -29 -39 -42 -29 -49 8 -6 7 -7 -4 -4 -18 6 -66 -41 -61 -58 2 -5 0 -7 -4
-2 -4 4 -42 -27 -85 -68 l-78 -76 -525 3 -525 3 -31 30 c-26 25 -37 45 -46 88
-1 4 -3 107 -4 230 -2 122 -5 202 -7 177 -1 -25 -5 -64 -9 -87 -5 -41 -7 -43
-40 -43 -19 0 -34 -4 -34 -10 0 -5 -9 -10 -20 -10 -11 0 -20 5 -20 10 0 6 -9
10 -19 10 -16 0 -21 8 -24 48 -2 26 -3 -45 -3 -158 1 -191 3 -209 25 -264 27
-69 89 -134 164 -174 l52 -27 555 0 555 0 60 30 c46 22 91 61 193 164 72 74
132 142 132 151 1 12 2 12 11 -2 9 -15 26 -18 119 -18 l109 0 196 -195 196
-195 248 0 248 0 229 218 c127 119 283 266 347 326 l117 109 0 118 c0 94 3
121 16 133 13 14 47 16 220 16 112 0 204 -2 204 -5 0 -22 -268 -369 -359 -465
-44 -47 -81 -86 -81 -87 0 -2 24 -3 53 -3 70 0 163 -23 238 -59 l62 -29 62 66
c80 85 96 105 189 229 42 56 76 107 76 113 0 5 3 10 8 10 4 0 19 20 32 45 17
31 33 48 50 51 122 26 200 109 200 214 0 71 -55 162 -119 195 -43 22 -112 26
-164 9z"/>
<path d="M3053 3508 c-24 -12 -53 -64 -53 -98 0 -100 149 -139 195 -51 25 49
20 95 -16 130 -33 33 -82 40 -126 19z"/>
<path d="M5189 3283 c-13 -16 -12 -17 4 -4 16 13 21 21 13 21 -2 0 -10 -8 -17
-17z"/>
<path d="M7086 2924 c-123 -38 -219 -137 -241 -249 -27 -132 11 -254 105 -339
56 -50 121 -77 202 -83 143 -11 282 67 345 195 24 50 28 69 28 147 0 79 -3 97
-28 145 -51 99 -124 159 -224 185 -71 19 -123 18 -187 -1z"/>
<path d="M5365 2638 c-34 -18 -45 -40 -45 -87 0 -63 36 -101 96 -101 36 0 47
5 73 35 42 48 39 92 -8 143 -24 24 -81 30 -116 10z"/>
<path d="M4807 2589 c-26 -15 -48 -72 -41 -106 8 -39 26 -60 63 -76 104 -44
189 79 112 162 -24 26 -37 31 -73 31 -23 0 -51 -5 -61 -11z"/>
</g>
</svg>
